<svg xmlns="http://www.w3.org/2000/svg" viewBox="526.6 319.7 1857.1 1857.1" width="800" height="800">
  <rect x="526.6" y="319.7" width="1857.1" height="1857.1" fill="#f5f1ec"/>
  <g transform="translate(0,2400) scale(0.1,-0.1)" fill="#1a1a1a">
    <path d="M12549 20538 c-34 -30 -52 -61 -80 -140 -49 -135 -110 -301 -170
-460 -17 -46 -42 -118 -55 -161 -13 -43 -30 -91 -39 -105 -8 -15 -24 -54 -36
-87 -11 -33 -37 -103 -56 -155 -19 -52 -41 -115 -50 -140 -8 -25 -23 -65 -34
-90 -19 -47 -45 -118 -85 -235 -13 -38 -33 -88 -43 -110 -10 -22 -22 -56 -26
-75 -4 -19 -14 -48 -22 -64 -8 -15 -40 -99 -70 -185 -30 -86 -69 -192 -85
-236 -51 -134 -99 -268 -115 -315 -8 -25 -23 -65 -34 -90 -10 -25 -28 -72 -40
-105 -12 -33 -34 -96 -50 -140 -15 -44 -42 -116 -59 -160 -33 -85 -53 -139
-120 -325 -23 -63 -50 -137 -60 -165 -32 -85 -90 -247 -111 -310 -11 -33 -31
-82 -44 -110 -12 -27 -26 -66 -30 -85 -4 -19 -14 -48 -22 -63 -8 -16 -25 -59
-38 -95 -13 -37 -40 -112 -60 -167 -20 -55 -42 -122 -50 -150 -8 -27 -25 -75
-38 -105 -45 -102 -69 -165 -87 -226 -10 -34 -24 -72 -30 -85 -7 -12 -23 -55
-35 -93 -13 -39 -38 -107 -55 -151 -40 -99 -106 -284 -125 -348 -7 -27 -20
-58 -28 -70 -7 -12 -33 -80 -56 -152 -24 -71 -51 -147 -62 -167 -11 -21 -28
-64 -39 -95 -23 -70 -75 -217 -119 -333 -36 -96 -81 -221 -106 -295 -9 -27
-24 -68 -34 -90 -10 -22 -26 -67 -35 -100 -10 -32 -28 -80 -41 -105 -12 -25
-26 -64 -30 -87 -3 -23 -16 -54 -26 -68 -11 -13 -23 -42 -26 -62 -8 -47 -60
-152 -79 -160 -8 -3 -24 1 -37 9 -36 24 -146 68 -220 88 -37 10 -78 25 -90 33
-12 7 -40 20 -62 27 -22 7 -65 26 -95 41 -30 16 -59 29 -63 29 -10 0 -266 114
-317 141 -19 10 -84 43 -145 73 -94 46 -206 107 -460 251 -27 16 -63 39 -78
52 -16 13 -33 23 -37 23 -9 0 -75 49 -240 175 -227 175 -444 397 -585 600 -33
47 -70 98 -83 114 -59 76 -272 518 -272 565 0 8 -12 52 -27 98 -23 73 -49 181
-82 343 -52 258 -49 963 5 1220 9 39 22 117 30 174 7 57 18 120 24 140 25 91
-2 151 -70 151 -43 0 -63 -19 -76 -75 -4 -16 -14 -43 -22 -60 -16 -32 -52
-129 -106 -290 -117 -350 -214 -746 -236 -960 -5 -55 -17 -136 -27 -180 -25
-116 -25 -649 -1 -745 10 -36 22 -103 28 -150 7 -47 20 -112 30 -145 10 -33
26 -91 34 -128 9 -37 23 -82 32 -99 9 -17 22 -52 30 -79 25 -85 170 -354 249
-463 131 -181 397 -467 520 -558 324 -241 459 -334 560 -383 28 -13 77 -40
110 -59 133 -77 590 -296 618 -296 8 0 38 -13 68 -29 30 -15 70 -32 89 -36 19
-4 53 -18 75 -30 22 -13 56 -26 75 -30 19 -4 49 -15 65 -23 17 -9 64 -28 105
-43 285 -99 396 -140 416 -154 24 -16 33 -58 14 -70 -5 -3 -17 -32 -26 -63 -9
-31 -20 -62 -25 -68 -5 -6 -20 -42 -33 -80 -13 -38 -40 -114 -61 -169 -82
-222 -93 -253 -119 -324 -14 -40 -30 -79 -35 -85 -6 -7 -17 -37 -25 -68 -8
-30 -23 -73 -34 -94 -10 -22 -22 -52 -26 -69 -4 -16 -16 -48 -26 -71 -11 -23
-24 -63 -30 -90 -6 -27 -19 -62 -30 -79 -10 -16 -24 -52 -30 -80 -7 -27 -23
-68 -35 -90 -13 -22 -26 -58 -30 -80 -4 -22 -18 -58 -30 -80 -13 -22 -27 -58
-30 -80 -4 -22 -18 -60 -30 -85 -12 -25 -28 -69 -35 -98 -6 -28 -16 -54 -21
-57 -4 -3 -18 -38 -30 -77 -11 -40 -27 -82 -35 -94 -8 -12 -19 -34 -24 -50 -5
-16 -29 -85 -55 -154 -25 -69 -54 -150 -64 -180 -10 -30 -27 -75 -39 -100 -11
-25 -34 -79 -52 -120 -87 -208 -231 -483 -307 -590 -133 -187 -316 -350 -438
-390 -21 -7 -52 -21 -69 -30 -17 -10 -61 -23 -99 -29 -37 -7 -79 -16 -94 -22
-46 -17 -169 -29 -377 -35 -208 -6 -238 -12 -248 -51 -7 -28 10 -80 30 -88 21
-9 2046 -13 2520 -6 378 7 362 3 362 72 0 64 -7 66 -274 74 -180 5 -255 11
-310 25 -39 10 -91 21 -116 25 -63 10 -175 60 -236 107 -100 75 -156 211 -158
383 -1 75 37 326 57 380 8 22 21 63 27 90 7 28 23 75 35 105 13 30 30 75 38
100 8 25 29 81 47 125 18 44 42 109 55 145 12 36 29 79 38 97 9 17 21 53 27
79 5 27 21 74 35 104 34 77 95 237 95 252 0 6 9 30 20 53 11 22 26 61 34 85 8
25 31 88 51 140 20 52 48 129 61 170 13 41 33 91 44 111 11 20 20 45 20 55 0
11 12 44 26 74 14 30 34 80 44 110 18 51 34 97 111 303 69 184 89 237 124 327
20 52 40 107 45 122 17 53 62 163 73 176 12 15 48 12 117 -11 25 -8 99 -31
165 -51 66 -21 158 -49 205 -63 47 -14 114 -36 150 -49 36 -13 98 -30 138 -39
40 -8 82 -20 92 -25 11 -6 59 -21 107 -34 49 -14 108 -31 133 -40 25 -8 95
-29 155 -47 106 -30 277 -81 380 -114 28 -9 93 -29 145 -45 142 -42 251 -77
285 -89 55 -20 219 -73 270 -87 28 -7 102 -32 165 -54 63 -23 142 -50 175 -60
33 -10 110 -37 170 -60 61 -23 137 -51 170 -61 33 -11 78 -29 101 -39 22 -11
45 -20 51 -20 13 0 214 -79 228 -90 6 -4 28 -13 50 -20 48 -15 186 -74 235
-99 19 -10 46 -22 60 -26 14 -3 52 -19 85 -35 66 -31 151 -70 205 -94 19 -8
46 -21 60 -30 14 -8 75 -39 135 -68 229 -113 518 -275 625 -348 14 -10 43 -27
65 -39 22 -12 74 -46 115 -76 76 -56 83 -61 180 -124 30 -20 79 -55 108 -79
30 -24 72 -54 93 -68 69 -43 55 -67 -61 -103 -41 -13 -102 -36 -135 -52 -33
-16 -65 -29 -72 -29 -30 0 -330 -153 -459 -233 -28 -18 -65 -41 -83 -52 -31
-19 -199 -141 -305 -222 -143 -110 -555 -558 -642 -700 -36 -59 -61 -99 -80
-127 -35 -52 -92 -150 -144 -246 -28 -52 -57 -106 -65 -120 -8 -14 -28 -56
-46 -95 -17 -38 -41 -92 -54 -120 -13 -27 -27 -63 -31 -80 -4 -16 -15 -47 -25
-67 -10 -20 -30 -74 -44 -120 -25 -84 -36 -121 -81 -261 -14 -43 -29 -101 -34
-130 -5 -29 -18 -95 -30 -147 -18 -83 -32 -186 -70 -510 -15 -124 -12 -553 4
-655 8 -49 17 -121 21 -160 9 -101 34 -258 55 -345 10 -41 21 -95 25 -120 4
-25 13 -57 20 -71 8 -14 23 -59 34 -100 28 -103 77 -244 94 -271 8 -13 18 -36
22 -53 11 -49 199 -421 230 -455 8 -9 15 -21 15 -26 0 -5 23 -40 50 -79 27
-38 59 -86 70 -105 11 -19 47 -69 79 -110 33 -41 86 -109 118 -150 32 -41 132
-149 223 -240 147 -147 219 -211 353 -315 227 -175 313 -234 507 -347 52 -30
111 -64 130 -76 89 -54 420 -211 500 -237 30 -10 67 -26 84 -35 17 -10 54 -23
81 -29 28 -7 60 -19 72 -27 12 -8 47 -20 77 -28 29 -8 68 -21 84 -30 17 -9 63
-23 102 -31 39 -8 79 -19 89 -25 30 -16 322 -88 402 -99 41 -5 90 -17 109 -25
19 -8 62 -17 95 -21 33 -4 114 -15 180 -26 367 -57 759 -77 1210 -60 327 12
483 24 600 47 44 9 127 22 185 29 58 7 141 23 184 34 44 12 89 21 101 21 12 0
76 14 141 31 65 17 141 35 167 40 26 4 62 17 80 27 18 11 57 23 87 27 30 4 66
14 79 22 13 8 60 25 105 38 44 12 101 32 126 44 25 11 52 21 60 21 8 0 42 14
75 30 33 16 67 30 75 30 8 0 69 27 135 60 66 33 123 60 128 60 4 0 70 35 147
77 77 43 157 87 177 98 41 22 67 38 218 139 195 129 259 178 428 323 327 280
549 528 758 848 130 199 129 198 215 365 19 36 38 72 44 80 13 21 82 173 108
240 50 128 92 240 92 247 0 5 13 51 29 103 77 250 129 483 146 645 3 33 16
125 28 205 29 197 33 861 5 1000 -9 47 -22 135 -28 195 -12 108 -70 396 -91
452 -6 15 -21 66 -35 113 -33 119 -78 248 -103 295 -12 21 -21 46 -21 54 0 9
-11 38 -24 66 -13 27 -45 95 -71 150 -26 55 -53 107 -60 115 -7 8 -16 26 -20
40 -4 14 -16 34 -26 45 -10 11 -25 36 -33 55 -8 19 -33 64 -55 100 -22 36 -53
85 -68 110 -15 25 -55 80 -88 124 -33 43 -71 95 -85 116 -122 182 -510 600
-745 804 -49 43 -101 91 -115 106 -14 15 -43 40 -65 56 -44 31 -148 115 -225
179 -77 65 -150 122 -240 187 -47 33 -103 74 -125 90 -22 16 -53 38 -70 49
-16 10 -50 34 -75 54 -54 42 -589 398 -660 440 -29 17 -66 40 -83 52 -18 12
-52 33 -77 46 -25 13 -61 34 -81 48 -80 54 -329 208 -419 259 -30 17 -74 43
-98 58 -23 15 -147 90 -275 166 -127 77 -241 147 -252 157 -11 10 -31 22 -45
28 -14 6 -74 42 -135 81 -60 38 -128 79 -150 91 -36 19 -125 76 -380 244 -44
29 -91 58 -105 65 -14 7 -36 22 -50 32 -14 11 -57 41 -96 66 -75 49 -297 208
-374 267 -25 19 -56 43 -70 52 -14 9 -56 43 -93 75 -38 32 -72 58 -76 58 -4 0
-18 10 -31 23 -13 12 -62 52 -108 88 -46 37 -136 117 -200 177 -64 61 -129
120 -144 131 -45 36 -301 318 -378 416 -17 22 -50 65 -73 95 -141 180 -315
474 -395 665 -67 160 -75 183 -92 246 -10 36 -25 82 -34 103 -9 21 -22 77 -31
125 -8 48 -21 109 -29 137 -56 191 -66 787 -17 1004 11 47 29 134 40 193 12
60 26 118 32 129 6 11 17 43 26 71 8 29 23 66 33 82 10 17 23 49 29 73 7 23
44 99 82 170 95 170 111 197 169 267 28 33 67 83 89 110 136 176 445 420 686
543 213 108 350 168 420 182 27 6 55 15 61 21 22 18 339 88 499 109 44 6 105
15 135 20 112 20 496 24 615 7 61 -9 153 -21 205 -27 157 -18 389 -66 495
-103 33 -11 89 -28 125 -38 77 -21 213 -69 255 -91 17 -9 44 -19 61 -22 17 -4
46 -18 65 -32 18 -13 37 -24 42 -24 15 0 186 -87 247 -125 30 -19 73 -44 95
-55 38 -19 80 -47 134 -87 13 -10 34 -25 46 -33 161 -107 437 -358 577 -526
234 -281 348 -459 493 -769 20 -44 50 -107 66 -140 15 -33 31 -73 35 -90 4
-16 17 -50 29 -75 12 -25 26 -63 29 -85 12 -63 68 -228 84 -247 8 -10 28 -18
43 -18 61 0 58 -68 58 1227 0 1183 0 1183 -22 1198 -56 39 -97 10 -107 -76 -7
-67 -40 -180 -68 -238 -23 -46 -119 -143 -164 -164 -110 -51 -329 13 -653 191
-49 27 -101 53 -115 57 -14 4 -36 15 -50 24 -37 26 -288 144 -330 156 -14 4
-36 16 -50 25 -14 10 -70 36 -125 58 -55 23 -139 57 -187 76 -48 20 -97 36
-108 36 -11 0 -37 9 -57 20 -21 11 -43 20 -50 20 -7 0 -54 13 -105 29 -125 40
-284 76 -464 106 -82 14 -155 28 -163 30 -8 3 -96 12 -195 20 -347 29 -892 13
-1061 -31 -33 -8 -96 -19 -140 -24 -99 -12 -283 -59 -435 -113 -210 -74 -265
-94 -295 -110 -16 -8 -66 -32 -110 -53 -44 -21 -96 -48 -115 -60 -19 -11 -87
-52 -150 -89 -63 -37 -128 -79 -145 -92 -284 -226 -328 -266 -479 -446 -102
-120 -196 -247 -241 -327 -15 -25 -42 -72 -60 -105 -19 -33 -42 -76 -51 -95
-8 -19 -24 -53 -34 -75 -52 -108 -136 -334 -158 -430 -6 -22 -19 -76 -31 -120
-11 -44 -27 -125 -36 -180 -8 -55 -20 -118 -25 -140 -27 -110 -35 -572 -14
-887 4 -60 3 -98 -3 -98 -19 0 -52 46 -66 95 -9 28 -29 86 -46 130 -41 111
-107 287 -136 365 -13 36 -35 94 -49 130 -54 142 -108 287 -122 330 -8 25 -23
63 -33 85 -11 22 -29 67 -39 100 -11 33 -34 97 -51 143 -53 141 -90 239 -120
320 -16 42 -43 115 -61 162 -17 47 -43 116 -56 154 -13 38 -28 74 -33 80 -5 6
-17 40 -26 76 -9 36 -22 74 -29 85 -7 11 -18 38 -25 60 -7 22 -23 65 -36 95
-13 30 -32 82 -43 115 -19 57 -46 129 -90 240 -11 28 -27 73 -37 100 -23 67
-66 183 -105 280 -17 44 -42 109 -55 145 -13 36 -40 108 -60 160 -20 52 -47
124 -60 160 -13 36 -38 103 -55 150 -18 47 -43 117 -56 155 -13 39 -30 81 -38
95 -7 14 -21 52 -31 85 -9 33 -23 71 -31 85 -8 14 -25 57 -38 95 -42 123 -78
220 -86 230 -4 6 -15 33 -23 61 -20 68 -87 246 -97 259 -4 6 -16 36 -25 69 -9
32 -25 73 -35 90 -10 17 -22 49 -26 71 -4 22 -17 63 -29 90 -12 28 -28 68 -35
89 -17 53 -48 104 -70 116 -23 13 -23 13 -41 -2z m-151 -1295 c5 -10 13 -36
16 -58 4 -22 18 -65 31 -95 13 -30 30 -75 38 -100 9 -25 32 -90 52 -145 20
-55 47 -131 60 -170 13 -38 32 -92 43 -120 45 -111 82 -215 82 -230 0 -8 9
-34 20 -58 11 -23 30 -73 44 -112 13 -38 36 -101 50 -140 14 -38 41 -113 60
-165 19 -52 48 -133 66 -180 32 -90 71 -196 114 -319 14 -40 30 -79 35 -85 5
-6 18 -42 29 -81 27 -91 80 -244 89 -258 9 -13 50 -130 90 -252 14 -44 29 -85
34 -91 5 -6 19 -42 33 -80 24 -70 102 -292 196 -554 29 -80 65 -183 81 -230
17 -47 38 -103 49 -125 10 -22 35 -92 56 -155 20 -63 57 -167 82 -230 24 -63
57 -151 72 -195 16 -44 45 -125 65 -180 19 -55 42 -122 50 -148 7 -26 19 -55
25 -62 7 -8 23 -50 36 -92 31 -103 80 -242 94 -268 6 -11 19 -47 30 -80 19
-61 62 -179 120 -335 17 -47 38 -105 47 -130 8 -25 21 -63 30 -85 31 -79 74
-201 90 -250 9 -27 26 -75 38 -105 13 -30 29 -75 35 -100 6 -25 18 -56 27 -69
8 -13 23 -51 33 -85 19 -61 59 -173 99 -274 12 -29 21 -60 21 -69 0 -9 11 -39
24 -67 14 -28 34 -80 46 -116 25 -76 92 -265 158 -445 36 -97 63 -173 86 -240
10 -27 31 -86 48 -130 16 -44 38 -105 48 -135 52 -157 93 -266 102 -277 6 -7
19 -41 28 -76 10 -34 37 -111 60 -172 23 -60 50 -135 59 -165 10 -30 28 -74
39 -97 24 -47 29 -99 10 -106 -7 -2 -44 28 -83 68 -65 67 -165 155 -226 201
-14 10 -53 39 -85 64 -64 48 -99 75 -154 115 -19 14 -53 39 -75 56 -22 16 -94
66 -160 109 -66 44 -133 89 -150 100 -16 12 -77 48 -135 82 -58 33 -130 75
-160 93 -77 46 -352 190 -441 231 -13 6 -37 18 -54 27 -77 42 -376 181 -424
198 -30 10 -59 23 -65 28 -10 9 -56 28 -221 93 -27 10 -68 28 -91 39 -22 10
-49 19 -60 19 -10 0 -48 14 -84 31 -36 17 -108 46 -160 65 -52 19 -117 43
-145 53 -27 10 -104 37 -170 61 -66 23 -149 52 -185 65 -79 28 -145 50 -225
77 -33 11 -89 30 -125 43 -36 13 -81 27 -100 31 -19 4 -53 15 -75 25 -22 10
-101 36 -175 59 -74 23 -157 50 -185 60 -27 10 -93 31 -145 48 -237 75 -731
236 -790 258 -36 13 -83 28 -105 34 -103 26 -144 74 -110 126 9 13 29 62 44
107 16 45 43 118 60 162 18 44 39 105 47 135 8 30 25 78 39 105 13 28 31 70
39 95 15 46 60 171 116 320 17 47 38 105 47 130 8 25 25 70 38 100 14 30 30
75 36 100 6 25 15 50 20 56 9 10 28 63 89 244 28 85 52 148 96 250 51 120 94
238 94 257 0 11 11 40 24 65 13 25 27 65 31 89 4 24 16 58 26 75 11 18 26 51
33 75 8 24 31 87 51 139 20 52 47 127 60 165 13 39 33 88 44 110 12 21 21 48
21 60 0 11 12 47 26 80 14 33 32 82 39 108 7 27 20 58 28 71 8 12 24 51 35 87
11 35 37 107 57 159 49 127 91 240 120 325 35 103 73 204 96 251 10 22 19 46
19 53 0 8 11 39 24 70 13 31 33 83 44 116 11 33 35 98 52 145 18 47 43 114 55
150 13 36 32 85 44 110 11 25 21 53 21 64 0 10 11 40 25 67 13 27 29 68 35 92
7 23 22 67 35 97 13 30 30 75 38 100 9 25 30 83 47 130 18 47 43 115 55 152
13 37 30 77 38 90 8 13 20 48 27 78 7 30 20 69 28 85 18 36 66 165 94 254 11
35 28 77 39 95 10 17 22 53 25 79 11 78 68 127 92 80z m2740 -5336 c24 -29 64
-83 88 -122 47 -76 119 -175 162 -224 15 -17 74 -85 132 -153 183 -215 545
-543 887 -805 72 -55 90 -68 218 -158 44 -31 100 -72 125 -90 50 -37 280 -196
339 -235 21 -14 49 -32 62 -41 13 -9 46 -29 72 -45 26 -16 70 -44 97 -61 27
-18 53 -33 57 -33 5 0 28 -16 52 -35 24 -19 48 -35 53 -35 4 0 43 -23 86 -52
121 -80 168 -110 302 -190 69 -42 146 -89 171 -106 25 -17 68 -43 95 -57 27
-14 87 -50 134 -80 47 -30 123 -78 169 -107 47 -29 105 -67 130 -84 25 -17 93
-59 151 -94 58 -35 156 -97 219 -139 62 -42 148 -98 191 -126 82 -52 257 -171
300 -204 14 -10 88 -63 165 -117 77 -54 163 -116 190 -137 28 -21 83 -64 124
-95 40 -31 97 -75 127 -97 29 -22 98 -80 152 -130 55 -49 141 -126 192 -170
173 -150 589 -600 680 -736 16 -24 40 -58 52 -75 38 -51 122 -176 138 -205 8
-15 26 -47 39 -71 13 -23 34 -56 46 -73 29 -39 177 -341 209 -425 85 -226 104
-281 115 -330 7 -30 21 -80 32 -110 10 -30 25 -89 33 -130 7 -41 21 -104 29
-140 24 -96 57 -409 64 -610 9 -283 -39 -918 -75 -986 -5 -11 -13 -48 -17 -84
-8 -66 -88 -398 -104 -428 -5 -9 -14 -44 -21 -77 -7 -33 -21 -75 -31 -93 -10
-18 -26 -58 -35 -90 -9 -31 -25 -71 -35 -88 -11 -17 -19 -38 -19 -45 0 -43
-295 -592 -329 -613 -5 -3 -23 -30 -39 -59 -17 -28 -67 -99 -111 -157 -45 -58
-99 -127 -120 -155 -106 -137 -412 -419 -630 -582 -96 -71 -218 -153 -230
-153 -3 0 -33 -18 -66 -41 -64 -43 -436 -230 -545 -274 -349 -139 -759 -240
-1170 -288 -159 -18 -832 -14 -970 6 -476 70 -601 98 -885 197 -44 16 -96 33
-115 39 -127 36 -568 243 -680 319 -14 9 -63 40 -110 69 -47 29 -98 61 -113
71 -15 9 -72 50 -125 90 -53 41 -113 86 -133 100 -125 95 -472 440 -539 538
-8 12 -49 67 -90 122 -41 56 -84 115 -95 131 -11 17 -38 56 -59 88 -21 32 -51
76 -66 98 -15 22 -35 56 -45 75 -10 19 -33 62 -51 95 -18 33 -43 80 -54 105
-11 25 -32 68 -45 96 -14 28 -25 55 -25 59 0 4 -13 35 -29 69 -63 133 -80 175
-87 212 -4 22 -15 55 -24 74 -24 48 -119 397 -145 535 -66 342 -70 376 -95
826 -15 265 9 675 55 914 13 72 29 153 34 180 13 70 66 274 81 310 7 17 20 57
30 90 25 83 67 193 89 235 10 19 24 51 30 72 7 20 33 76 58 125 25 48 57 109
70 135 60 121 151 262 258 400 39 50 84 109 101 132 36 49 295 306 340 338 18
13 74 55 125 94 107 80 197 136 339 212 30 16 70 37 88 46 80 43 97 38 211
-65 203 -182 357 -346 526 -558 50 -62 104 -129 120 -148 17 -20 39 -51 50
-69 20 -32 99 -152 136 -206 40 -58 214 -374 224 -408 4 -14 15 -36 25 -50 9
-14 24 -44 33 -67 9 -23 26 -59 37 -80 11 -21 20 -45 20 -53 0 -8 8 -29 18
-45 11 -17 27 -55 37 -85 23 -70 60 -126 88 -134 12 -3 91 -6 175 -6 196 0
218 16 167 120 -7 14 -18 43 -25 65 -6 22 -32 90 -56 152 -24 61 -44 116 -44
122 0 7 -11 33 -24 59 -13 26 -29 68 -35 92 -6 25 -20 63 -31 85 -10 22 -25
60 -33 85 -8 25 -32 90 -52 145 -21 55 -50 134 -65 175 -15 41 -38 100 -50
130 -20 50 -69 182 -121 330 -11 30 -28 73 -39 95 -10 22 -28 67 -38 100 -11
33 -34 98 -52 145 -18 47 -45 121 -62 165 -16 44 -40 109 -53 145 -13 36 -40
108 -60 160 -21 52 -44 115 -52 140 -8 25 -23 65 -33 90 -11 25 -38 97 -60
160 -23 63 -52 140 -66 170 -13 30 -32 80 -43 110 -10 30 -33 93 -50 140 -18
47 -41 112 -52 145 -11 33 -31 82 -44 109 -14 28 -25 59 -25 71 0 11 -9 39
-21 60 -11 22 -29 65 -39 95 -40 115 -77 216 -88 237 -7 12 -21 48 -32 80 -10
32 -35 103 -55 158 -21 55 -47 130 -60 166 -13 37 -28 75 -34 85 -6 11 -22 51
-35 89 -13 39 -36 102 -51 140 -15 39 -44 117 -65 175 -55 154 -68 188 -84
218 -8 15 -26 63 -39 107 -27 86 -69 194 -92 236 -8 14 -17 46 -21 70 -3 24
-17 67 -30 94 -25 53 -59 136 -101 245 -48 126 -43 138 25 57z"/>
  </g>
</svg>
