<?xml version="1.0" standalone="no"?>
<!DOCTYPE svg PUBLIC "-//W3C//DTD SVG 20010904//EN"
 "http://www.w3.org/TR/2001/REC-SVG-20010904/DTD/svg10.dtd">
<svg version="1.0" xmlns="http://www.w3.org/2000/svg"
 width="1080.000000pt" height="626.000000pt" viewBox="0 0 1080.000000 626.000000"
 preserveAspectRatio="xMidYMid meet">
<metadata>
Created by potrace 1.16, written by Peter Selinger 2001-2019
</metadata>
<g transform="translate(0.000000,626.000000) scale(0.100000,-0.100000)"
fill="#000000" stroke="none">
<path d="M5046 2992 c-3 -6 -46 -120 -95 -254 -241 -658 -341 -930 -348 -943
-9 -15 -106 23 -230 88 -188 98 -290 298 -263 512 19 145 6 156 -34 28 -113
-370 -11 -558 384 -714 54 -21 94 -43 92 -49 -10 -42 -167 -450 -191 -497 -47
-93 -106 -133 -195 -133 -25 0 -48 -5 -51 -10 -4 -7 78 -10 239 -10 157 0 246
4 246 10 0 6 -24 10 -52 10 -104 0 -148 46 -128 134 19 84 178 491 192 490 68
-7 500 -152 643 -216 77 -34 255 -140 255 -151 0 -2 -34 -21 -76 -41 -378
-187 -458 -733 -150 -1024 293 -277 845 -300 1183 -49 287 213 358 642 157
948 -93 142 -249 266 -609 485 -301 183 -412 282 -488 433 -42 84 -42 84 -42
205 0 112 2 126 29 183 128 277 569 312 817 64 64 -64 126 -166 143 -233 17
-73 26 -17 26 172 0 127 -4 200 -10 200 -5 0 -10 -9 -10 -20 0 -12 -11 -32
-24 -45 -29 -29 -45 -26 -153 29 -149 75 -212 90 -368 91 -121 0 -149 -3 -208
-23 -211 -73 -322 -233 -322 -464 0 -58 -3 -101 -6 -95 -4 7 -80 208 -169 447
-161 434 -172 461 -184 442z m71 -454 c50 -139 151 -417 223 -618 72 -201 147
-407 166 -458 42 -114 42 -121 2 -82 -107 101 -310 201 -623 306 -126 42 -233
80 -237 83 -4 4 56 177 133 386 77 209 162 437 187 507 26 71 49 128 52 128 3
0 46 -114 97 -252z m453 -741 c85 -90 169 -152 386 -288 361 -225 495 -342
574 -502 138 -280 57 -649 -182 -832 -214 -163 -543 -181 -786 -44 -84 48
-200 169 -245 256 -128 247 -103 576 58 760 46 52 130 113 157 113 35 0 159
-156 210 -265 27 -58 33 -65 59 -65 16 0 29 4 29 8 0 4 -78 217 -174 472 -207
555 -192 512 -169 480 10 -14 47 -56 83 -93z"/>
</g>
</svg>
